<?xml version="1.0" encoding="UTF-8"?>
<svg version="1.1" xmlns="http://www.w3.org/2000/svg" width="512" height="512">
<path d="M0 0 C4.24903979 1.85037009 8.1228607 4.19441075 12.0625 6.625 C13.21040121 7.3131823 14.35951435 7.99934667 15.50976562 8.68359375 C17.86910147 10.09012325 20.22222363 11.50624598 22.57080078 12.93066406 C27.67485503 16.02041706 32.84017358 19.00469344 38 22 C39.97934757 23.15594029 41.95851286 24.31219276 43.9375 25.46875 C50.27895672 29.16793309 56.63840485 32.83558896 63 36.5 C76.35015665 44.19117469 89.65733128 51.9548296 102.95898438 59.72949219 C105.93065505 61.46606836 108.90269374 63.20201192 111.875 64.9375 C112.86218018 65.51395264 113.84936035 66.09040527 114.86645508 66.68432617 C122.16611392 70.9420168 129.48704158 75.16189825 136.8125 79.375 C146.87364481 85.16388211 156.87525306 91.04711499 166.84326172 96.99487305 C172.64216924 100.44740914 178.46369962 103.84920234 184.33984375 107.16796875 C185.54168779 107.84957213 186.743511 108.53121225 187.9453125 109.21289062 C190.21667295 110.5005192 192.49425664 111.77396904 194.77734375 113.04101562 C195.79828125 113.61916016 196.81921875 114.19730469 197.87109375 114.79296875 C198.76755615 115.2933667 199.66401855 115.79376465 200.58764648 116.30932617 C203.44058024 118.30877626 205.07179982 120.08586282 207 123 C207.50793457 126.33898926 207.50793457 126.33898926 207.51757812 130.18945312 C207.52809204 131.24651711 207.52809204 131.24651711 207.53881836 132.32493591 C207.55636004 134.64411339 207.54479048 136.96206108 207.53125 139.28125 C207.53394605 140.89880608 207.53782941 142.51636058 207.54284668 144.13391113 C207.5487365 147.51993273 207.54019582 150.90553155 207.52148438 154.29150391 C207.49869466 158.62612817 207.51182058 162.95976173 207.53577423 167.29434967 C207.55024645 170.63331532 207.54561979 173.9720471 207.53526306 177.3110199 C207.53259969 178.90897235 207.53585185 180.50694622 207.54518127 182.10487366 C207.55537097 184.34066801 207.53981492 186.57487072 207.51757812 188.81054688 C207.51439575 190.08119995 207.51121338 191.35185303 207.50793457 192.66101074 C206.90912172 196.59740294 205.77507997 198.19821089 203 201 C199.984375 203.01953125 199.984375 203.01953125 196.75 204.8125 C195.67234375 205.41707031 194.5946875 206.02164063 193.484375 206.64453125 C192.66453125 207.09183594 191.8446875 207.53914062 191 208 C194.13171944 210.56080422 197.29403279 212.92414351 200.6875 215.125 C203.05209763 216.65900787 205.00269892 218.00269892 207 220 C207.26171303 221.92528248 207.26171303 221.92528248 207.2784729 224.32563782 C207.29521812 225.69155563 207.29521812 225.69155563 207.31230164 227.08506775 C207.31446182 228.08864822 207.31662201 229.0922287 207.31884766 230.1262207 C207.32889328 231.182547 207.3389389 232.23887329 207.34928894 233.32720947 C207.38041954 236.86006126 207.39728942 240.39283427 207.4140625 243.92578125 C207.43281815 246.41912953 207.45239466 248.91247175 207.4727478 251.4058075 C207.51382376 256.67961672 207.54878521 261.95341138 207.578125 267.22729492 C207.62194452 275.1014882 207.68143663 282.97552869 207.7421875 290.84960938 C207.82925201 302.41026478 207.89360217 313.97089593 207.94313431 325.53177071 C207.97739201 333.24675944 208.03015758 340.96135124 208.09687996 348.67612553 C208.13701063 353.62528948 208.16471907 358.57447058 208.18943405 363.52373314 C208.20365042 365.85037176 208.22305437 368.17698507 208.24791336 370.50353432 C208.28124166 373.69800778 208.29596326 376.89205105 208.30615234 380.08666992 C208.32758615 381.49290524 208.32758615 381.49290524 208.34945297 382.92754936 C208.3440231 387.78702994 208.18260359 391.06269814 205 395 C198.57373835 400.54857638 190.79057669 404.51095683 183.375 408.5625 C174.88076024 413.26107918 166.43618799 418.02710702 158.0625 422.9375 C149.76625069 427.79945629 141.456567 432.63626856 133.125 437.4375 C132.04484619 438.06003662 130.96469238 438.68257324 129.85180664 439.32397461 C127.66203666 440.58576826 125.47217645 441.84740534 123.28222656 443.10888672 C117.85340058 446.23680148 112.42680719 449.36858448 107 452.5 C104.83334417 453.75001879 102.6666775 455.00001878 100.5 456.25 C99.4275 456.86875 98.355 457.4875 97.25 458.125 C61.5 478.75 61.5 478.75 58.24658203 480.62695312 C56.09128689 481.8704051 53.93601327 483.11389436 51.78076172 484.35742188 C46.77662326 487.24462875 41.7722948 490.1315043 36.76715088 493.01696777 C35.01658759 494.02619104 33.26609589 495.03553836 31.515625 496.04492188 C29.33607835 497.3016766 27.15640168 498.55820586 24.9765625 499.81445312 C23.97625 500.39130859 22.9759375 500.96816406 21.9453125 501.5625 C20.96336914 502.12195313 19.98142578 502.68140625 18.96972656 503.2578125 C16.92780628 504.45570326 14.91483209 505.7038927 12.92871094 506.9921875 C7.53105337 510.42189527 3.07212584 513.15400741 -3.46679688 512.62646484 C-8.72109218 511.32706992 -13.15068727 508.58729198 -17.75 505.8125 C-18.84127197 505.17755615 -19.93254395 504.5426123 -21.05688477 503.88842773 C-24.38395393 501.94629119 -27.69282623 499.97577932 -31 498 C-32.86759196 496.89951692 -34.73603082 495.80046932 -36.60546875 494.703125 C-40.19233565 492.59351103 -43.77191149 490.47215425 -47.34765625 488.34375 C-53.4922826 484.69575043 -59.6812405 481.1262587 -65.875 477.5625 C-79.26882828 469.85380763 -92.61711337 462.0686773 -105.95898438 454.27050781 C-108.93065505 452.53393164 -111.90269374 450.79798808 -114.875 449.0625 C-115.86218018 448.48604736 -116.84936035 447.90959473 -117.86645508 447.31567383 C-125.16611349 443.05798345 -132.48700606 438.83803948 -139.8125 434.625 C-149.82979822 428.8623607 -159.7838574 423.00007826 -169.70483398 417.07324219 C-175.67839127 413.51681908 -181.68058429 410.03394093 -187.75 406.64453125 C-189.03727489 405.92244957 -190.32454705 405.20036303 -191.61181641 404.47827148 C-194.05995212 403.10602264 -196.51619682 401.75007655 -198.97802734 400.40258789 C-200.64019287 399.47240845 -200.64019287 399.47240845 -202.3359375 398.5234375 C-203.79845947 397.717854 -203.79845947 397.717854 -205.29052734 396.89599609 C-209.76502874 393.76489339 -212.63625985 390.95617198 -213.63491821 385.58544922 C-213.63889618 384.33779785 -213.64287415 383.09014648 -213.64697266 381.8046875 C-213.65573425 381.11119202 -213.66449585 380.41769653 -213.67352295 379.70318604 C-213.69540653 377.4264745 -213.68100642 375.15172887 -213.6640625 372.875 C-213.66743388 371.28368764 -213.67228918 369.6923778 -213.67855835 368.10107422 C-213.68591462 364.7722106 -213.67526533 361.44401956 -213.65185547 358.11523438 C-213.62336732 353.85788434 -213.63977815 349.60211038 -213.66971779 345.34481812 C-213.68782516 342.0606712 -213.68201723 338.77689518 -213.66907883 335.49273682 C-213.66575426 333.92352103 -213.66979844 332.35427107 -213.68147659 330.78509521 C-213.69424359 328.58759985 -213.67473338 326.39262134 -213.64697266 324.1953125 C-213.64299469 322.94766113 -213.63901672 321.70000977 -213.63491821 320.41455078 C-212.64216932 315.07560879 -209.77777259 312.29534854 -205.39453125 309.1015625 C-204.54246094 308.61429687 -203.69039062 308.12703125 -202.8125 307.625 C-201.52279297 306.87089844 -201.52279297 306.87089844 -200.20703125 306.1015625 C-198 305 -198 305 -196 305 C-196 304.34 -196 303.68 -196 303 C-197.07701172 302.59587891 -197.07701172 302.59587891 -198.17578125 302.18359375 C-201.00607908 300.99745233 -203.55116695 299.62994159 -206.1875 298.0625 C-207.04730469 297.55847656 -207.90710938 297.05445313 -208.79296875 296.53515625 C-211 295 -211 295 -213 292 C-213.26171303 289.97008038 -213.26171303 289.97008038 -213.2784729 287.59880066 C-213.28963638 286.69667343 -213.30079987 285.7945462 -213.31230164 284.86508179 C-213.31446182 283.87601837 -213.31662201 282.88695496 -213.31884766 281.86791992 C-213.32889328 280.82280746 -213.3389389 279.77769501 -213.34928894 278.70091248 C-213.38038092 275.21076999 -213.39728062 271.72070721 -213.4140625 268.23046875 C-213.43282321 265.76336556 -213.45240005 263.29626846 -213.4727478 260.82917786 C-213.51906844 254.94375713 -213.55628996 249.05833085 -213.58942068 243.1728223 C-213.63012535 236.05979529 -213.68666801 228.94690776 -213.7421875 221.83398438 C-213.82943537 210.37660165 -213.89377664 198.91924374 -213.94313431 187.4616375 C-213.97769263 179.70533277 -214.03072015 171.94941018 -214.09687996 164.19331264 C-214.13708669 159.1559804 -214.16476896 154.1186315 -214.18943405 149.08120155 C-214.20365554 146.70499304 -214.22306346 144.32880935 -214.24791336 141.95268822 C-214.2812599 138.68491866 -214.29596999 135.41757016 -214.30615234 132.1496582 C-214.32044155 131.18869799 -214.33473076 130.22773777 -214.34945297 129.23765755 C-214.34410282 124.32980303 -214.22846854 120.97194917 -211 117 C-204.8336837 111.75994034 -197.05597106 108.13513695 -190 104.25 C-182.81107379 100.25824176 -175.63363437 96.26001356 -168.5625 92.0625 C-161.59230165 87.92682031 -154.58498988 83.85878933 -147.5625 79.8125 C-146.45527588 79.17449463 -145.34805176 78.53648926 -144.20727539 77.87915039 C-141.93662932 76.57110523 -139.66587642 75.26324552 -137.39501953 73.95556641 C-131.9283002 70.80667946 -126.46425113 67.65316736 -121 64.5 C-118.83334689 63.2499765 -116.66668021 61.99997653 -114.5 60.75 C-113.4275 60.13125 -112.355 59.5125 -111.25 58.875 C-99.33333333 52 -87.41666667 45.125 -75.5 38.25 C-74.42709717 37.6310083 -73.35419434 37.0120166 -72.2487793 36.37426758 C-70.08621417 35.1266526 -67.92361661 33.87909384 -65.76098633 32.6315918 C-59.17006479 28.82953801 -52.58006228 25.02590263 -45.99194336 21.21899414 C-43.80808573 19.95902042 -41.62272525 18.70164755 -39.43579102 17.44702148 C-34.26378481 14.4782355 -29.11683661 11.47971078 -24.015625 8.390625 C-23.07243408 7.82819092 -22.12924316 7.26575684 -21.1574707 6.6862793 C-19.40681785 5.64116736 -17.66489622 4.58121449 -15.93432617 3.50317383 C-10.61233879 0.35460931 -6.18072384 -1.49542697 0 0 Z " fill="#010101" transform="translate(259,0)"/>
<path d="M0 0 C2.46098631 1.31369376 4.81481019 2.66752323 7.1875 4.125 C8.70098225 5.0352534 10.21536679 5.94400764 11.73046875 6.8515625 C12.98029541 7.60228027 12.98029541 7.60228027 14.25537109 8.36816406 C19.47057338 11.46889455 24.73935716 14.47724929 30 17.5 C37.89063161 22.04333016 45.76801923 26.6062401 53.60961914 31.23364258 C69.11229758 40.38065229 84.68583075 49.40549981 100.2824707 58.39111328 C110.54858681 64.30889386 120.78425592 70.27806313 131.01464844 76.25732422 C134.05207975 78.03040115 137.09207948 79.79899828 140.1328125 81.56640625 C145.12138295 84.46669181 150.10509519 87.3751178 155.08398438 90.29199219 C157.05306348 91.44534763 159.02314138 92.59699932 160.99414062 93.74707031 C163.83406536 95.40697352 166.66782992 97.07690853 169.5 98.75 C170.36141602 99.25160645 171.22283203 99.75321289 172.11035156 100.27001953 C172.88862305 100.73263184 173.66689453 101.19524414 174.46875 101.671875 C175.15388672 102.0750293 175.83902344 102.47818359 176.54492188 102.89355469 C177.02509766 103.25868164 177.50527344 103.62380859 178 104 C178 104.66 178 105.32 178 106 C177.27111572 106.40202637 176.54223145 106.80405273 175.79125977 107.21826172 C158.03313177 117.00064103 158.03313177 117.00064103 140.48876953 127.15869141 C134.17146343 130.91364807 127.80686138 134.58414373 121.4375 138.25 C112.98325042 143.11759824 104.54473374 148.01045387 96.125 152.9375 C86.85444994 158.35973762 77.54063142 163.70324102 68.20953369 169.02023315 C59.14761065 174.18501246 50.12425158 179.41248528 41.12426758 184.68457031 C31.78953487 190.14369762 22.39891053 195.50347648 12.99804688 200.84765625 C11.86818359 201.49089844 10.73832031 202.13414062 9.57421875 202.796875 C8.06734497 203.65297363 8.06734497 203.65297363 6.5300293 204.52636719 C4.6490112 205.621979 2.81123309 206.79251127 1 208 C-2.71979658 207.65535673 -5.46351958 206.39422827 -8.67578125 204.55078125 C-9.57353271 204.03974854 -10.47128418 203.52871582 -11.39624023 203.00219727 C-12.35860596 202.44459717 -13.32097168 201.88699707 -14.3125 201.3125 C-15.32578369 200.73234131 -16.33906738 200.15218262 -17.38305664 199.55444336 C-20.59392936 197.71185571 -23.79794947 195.85787163 -27 194 C-28.50288574 193.12891602 -28.50288574 193.12891602 -30.03613281 192.24023438 C-36.03003486 188.76168327 -42.01332953 185.26521928 -47.99267578 181.76171875 C-52.95069751 178.85726309 -57.91238105 175.95909225 -62.875 173.0625 C-63.85976318 172.48765869 -64.84452637 171.91281738 -65.85913086 171.32055664 C-73.2263907 167.02433377 -80.61025028 162.75740115 -88 158.5 C-101.35009178 150.80871162 -114.65733042 143.0451709 -127.95898438 135.27050781 C-130.93065504 133.53393165 -133.90270372 131.79800513 -136.875 130.0625 C-137.84840332 129.49402344 -138.82180664 128.92554688 -139.82470703 128.33984375 C-145.21034327 125.19829615 -150.60397799 122.07107373 -156.0078125 118.9609375 C-156.59319794 118.62390305 -157.17858337 118.28686859 -157.78170776 117.93962097 C-160.61085721 116.31112885 -163.44109507 114.6845761 -166.27294922 113.06079102 C-171.92170263 109.81318015 -177.50136405 106.49612791 -183 103 C-179.58501433 99.10973282 -175.74967408 97.01780162 -171.25 94.625 C-163.92538522 90.64295542 -156.69139093 86.53035742 -149.5 82.3125 C-141.05758857 77.36785184 -132.60196113 72.44771204 -124.125 67.5625 C-123.04541016 66.94028564 -121.96582031 66.31807129 -120.85351562 65.67700195 C-118.6631748 64.41488483 -116.47274498 63.15292215 -114.28222656 61.89111328 C-108.85340058 58.76319852 -103.42680719 55.63141552 -98 52.5 C-95.83334417 51.24998121 -93.6666775 49.99998122 -91.5 48.75 C-90.4275 48.13125 -89.355 47.5125 -88.25 46.875 C-76.33333333 40 -64.41666667 33.125 -52.5 26.25 C-51.42556641 25.63012207 -50.35113281 25.01024414 -49.24414062 24.37158203 C-47.09704864 23.13289998 -44.94991386 21.8942921 -42.80273438 20.65576172 C-37.70411191 17.7146665 -32.60594704 14.77278587 -27.50927734 11.82830811 C-25.08952335 10.43041399 -22.66952737 9.03293911 -20.24951172 7.63549805 C-18.53198948 6.64347676 -16.81481948 5.65084571 -15.09765625 4.65820312 C-13.54884766 3.76391602 -13.54884766 3.76391602 -11.96875 2.8515625 C-10.59879883 2.05999756 -10.59879883 2.05999756 -9.20117188 1.25244141 C-5.4584453 -0.87712684 -4.21575707 -1.22449375 0 0 Z " fill="#F6B42B" transform="translate(258,22)"/>
<path d="M0 0 C3.44551973 36.92006914 3.44551973 36.92006914 -1.74023438 46.07080078 C-6.5376371 50.67092128 -12.51513819 52.68304576 -18.72363281 54.77246094 C-24.46095218 56.92203186 -29.52537928 60.21158434 -34.75 63.375 C-36.94991482 64.64878953 -39.15307191 65.91699528 -41.359375 67.1796875 C-48.9827446 71.56435604 -56.60005215 75.95950024 -64.21606445 80.35693359 C-69.22692991 83.24943681 -74.23931125 86.13917161 -79.25863647 89.01696777 C-81.01728749 90.02548314 -82.77533209 91.0350477 -84.53320312 92.04492188 C-86.72472231 93.30350518 -88.91734504 94.56016987 -91.11132812 95.81445312 C-103.00262454 101.45248885 -103.00262454 101.45248885 -112 110 C-112.12355235 112.85836493 -112.188432 115.69137464 -112.203125 118.55078125 C-112.20882507 119.40173874 -112.21452515 120.25269623 -112.22039795 121.12944031 C-112.22985298 122.93255366 -112.23638392 124.73568433 -112.24023438 126.53881836 C-112.24992487 129.29116198 -112.28093675 132.04275408 -112.3125 134.79492188 C-112.31903163 136.54687057 -112.32428147 138.2988246 -112.328125 140.05078125 C-112.3466452 141.28227654 -112.3466452 141.28227654 -112.36553955 142.53865051 C-112.34753929 147.18087484 -112.01932262 150.23044095 -109 154 C-105.48847264 155.75576368 -101.74186706 154.79256688 -98 154 C-95.36710489 152.92561445 -93.06925568 151.48192687 -90.6875 149.9375 C-89.20476948 149.02207064 -87.72025757 148.10952293 -86.234375 147.19921875 C-85.41259766 146.69181152 -84.59082031 146.1844043 -83.74414062 145.66162109 C-78.9666776 142.76879072 -74.10065391 140.02981088 -69.24301147 137.2746582 C-59.75219319 131.88845881 -50.29466932 126.44731075 -40.875 120.9375 C-32.760203 116.19125149 -24.63659314 111.46093598 -16.49615479 106.75881958 C-14.78847502 105.77222847 -13.08148527 104.78444334 -11.37451172 103.79663086 C-10.3382666 103.19858643 -9.30202148 102.60054199 -8.234375 101.984375 C-6.86104004 101.19111816 -6.86104004 101.19111816 -5.45996094 100.38183594 C-3.3408619 99.19147264 -1.1739449 98.08697245 1 97 C1 143.86 1 190.72 1 239 C-12.86 246.92 -12.86 246.92 -27 255 C-36.01095762 260.2485178 -36.01095762 260.2485178 -45.015625 265.5078125 C-54.55822933 271.08429156 -64.14057793 276.59211491 -73.71777344 282.10888672 C-79.14659942 285.23680148 -84.57319281 288.36858448 -90 291.5 C-92.16665583 292.75001879 -94.3333225 294.00001878 -96.5 295.25 C-97.5725 295.86875 -98.645 296.4875 -99.75 297.125 C-109.5 302.75 -109.5 302.75 -112.75097656 304.62548828 C-114.91447476 305.87371034 -117.07788643 307.12208239 -119.24121094 308.37060547 C-124.70565017 311.52405256 -130.17163645 314.67476096 -135.640625 317.8203125 C-137.84383665 319.08839113 -140.04696237 320.35661906 -142.25 321.625 C-143.31541016 322.23802979 -144.38082031 322.85105957 -145.47851562 323.48266602 C-150.82399409 326.565307 -156.15179959 329.67398363 -161.453125 332.83203125 C-162.47245117 333.43901855 -163.49177734 334.04600586 -164.54199219 334.67138672 C-166.47219544 335.82383722 -168.40004851 336.98023579 -170.32519531 338.14111328 C-171.60281738 338.90464111 -171.60281738 338.90464111 -172.90625 339.68359375 C-173.65197266 340.13275146 -174.39769531 340.58190918 -175.16601562 341.04467773 C-177 342 -177 342 -179 342 C-179.42296323 336.06014171 -179.72972652 330.12914157 -179.93383789 324.17773438 C-180.01892348 322.15892941 -180.13466212 320.14116034 -180.2824707 318.12597656 C-181.4418257 301.90302985 -181.4418257 301.90302985 -177.46084595 297.1701355 C-173.43435678 293.9187274 -168.89824563 291.86817393 -164.1378479 289.9095459 C-161.26390037 288.68682693 -158.660932 287.12315757 -156.00390625 285.48828125 C-154.19040182 284.42917766 -152.37659703 283.37058822 -150.5625 282.3125 C-149.56009277 281.72782959 -148.55768555 281.14315918 -147.52490234 280.54077148 C-134.57490247 272.99512594 -121.58475295 265.51903577 -108.59619141 258.04003906 C-103.05844085 254.85099042 -97.52267177 251.65866681 -91.9921875 248.45703125 C-88.23916228 246.28539058 -84.47528719 244.1360674 -80.6953125 242.01171875 C-79.15102715 241.13283801 -77.60675523 240.25393367 -76.0625 239.375 C-75.37663818 238.99754639 -74.69077637 238.62009277 -73.98413086 238.23120117 C-70.01626499 235.95379919 -67.90906606 234.15172143 -66 230 C-65.68874056 227.05244545 -65.53200151 224.32151003 -65.53125 221.375 C-65.52363647 220.5504834 -65.51602295 219.7259668 -65.50817871 218.87646484 C-65.49740408 217.13837707 -65.49451387 215.40022469 -65.49902344 213.66210938 C-65.49999706 211.00801562 -65.45832325 208.35680265 -65.4140625 205.703125 C-65.40885591 204.01042267 -65.4061673 202.31771033 -65.40625 200.625 C-65.38985474 199.83528809 -65.37345947 199.04557617 -65.35656738 198.23193359 C-65.40898814 194.03918073 -65.66065996 192.43905116 -68.31396484 189.00610352 C-71.18463695 186.86210127 -73.06318517 186.17351317 -76.66113281 186.42138672 C-81.88282432 187.71318305 -86.3321512 190.77782105 -90.875 193.5625 C-92.02233513 194.24794234 -93.17079697 194.93150185 -94.3203125 195.61328125 C-96.70461527 197.02938635 -99.08389494 198.45342181 -101.45996094 199.88330078 C-106.92895829 203.16525973 -112.4679437 206.32595903 -118 209.5 C-120.16049018 210.74551468 -122.32064533 211.9916107 -124.48046875 213.23828125 C-125.55216309 213.85654785 -126.62385742 214.47481445 -127.72802734 215.11181641 C-131.044382 217.02561188 -134.36014721 218.94042512 -137.67578125 220.85546875 C-144.11498147 224.57414578 -150.55655968 228.28867509 -157 232 C-158.56524414 232.90202148 -158.56524414 232.90202148 -160.16210938 233.82226562 C-163.12748598 235.52982987 -166.09465299 237.23423393 -169.0625 238.9375 C-169.95557861 239.45207764 -170.84865723 239.96665527 -171.76879883 240.49682617 C-172.57857178 240.96064697 -173.38834473 241.42446777 -174.22265625 241.90234375 C-175.28625366 242.51323853 -175.28625366 242.51323853 -176.37133789 243.13647461 C-178 244 -178 244 -179 244 C-179 197.14 -179 150.28 -179 102 C-169.1 96.555 -169.1 96.555 -159 91 C-152.84378336 87.40437918 -152.84378336 87.40437918 -146.70703125 83.77734375 C-141.0191213 80.4091603 -135.29022431 77.11236952 -129.5625 73.8125 C-128.45712891 73.17546143 -127.35175781 72.53842285 -126.21289062 71.88208008 C-122.80889695 69.9208598 -119.40449228 67.96035461 -116 66 C-111.62449212 63.48004706 -107.24943866 60.95930859 -102.875 58.4375 C-101.79661865 57.81584961 -100.7182373 57.19419922 -99.60717773 56.55371094 C-92.43241148 52.41377966 -85.27501075 48.24500712 -78.125 44.0625 C-69.48718013 39.0116199 -60.81681248 34.01974096 -52.125 29.0625 C-42.69740794 23.68549484 -33.27781998 18.29523456 -23.875 12.875 C-22.82715332 12.27179932 -21.77930664 11.66859863 -20.69970703 11.04711914 C-15.07086374 7.79949953 -9.48802808 4.49641168 -3.96533203 1.07080078 C-2 0 -2 0 0 0 Z " fill="#FDFDFD" transform="translate(446,144)"/>
<path d="M0 0 C1.72389692 0.9384665 3.447566 1.87735154 5.17114258 2.81640625 C6.61098259 3.60059937 6.61098259 3.60059937 8.07991028 4.40063477 C12.63686437 6.89652861 17.16473862 9.44278813 21.6875 12 C23.16682007 12.83640015 23.16682007 12.83640015 24.67602539 13.68969727 C34.83149552 19.44753987 44.91168602 25.33196481 54.98388672 31.23388672 C59.98538616 34.1625614 64.99295476 37.08082046 70 40 C75.97782079 43.486131 81.95505999 46.97324228 87.9296875 50.46484375 C99.36219469 57.14383479 110.81535395 63.78547374 122.28857422 70.39428711 C130.51292381 75.13448084 138.71602799 79.91011083 146.91040039 84.7019043 C152.3456479 87.87739717 157.78984639 91.0365544 163.24609375 94.17578125 C163.84853912 94.52252899 164.4509845 94.86927673 165.07168579 95.22653198 C168.00938927 96.91696396 170.94825226 98.60530817 173.88867188 100.29101562 C175.4577832 101.19303711 175.4577832 101.19303711 177.05859375 102.11328125 C178.45549438 102.91439331 178.45549438 102.91439331 179.88061523 103.73168945 C182 105 182 105 183 106 C183.09643778 107.82227687 183.12187371 109.6483336 183.12025452 111.47315979 C183.12231651 113.25481537 183.12231651 113.25481537 183.12442017 115.07246399 C183.12082489 116.38732285 183.11722961 117.7021817 183.11352539 119.05688477 C183.11324352 120.44617714 183.11340125 121.83546967 183.1139679 123.22476196 C183.11425588 127.00765289 183.10835901 130.79051238 183.10139394 134.57339597 C183.09516055 138.52255677 183.09455661 142.47171822 183.09336853 146.42088318 C183.09025517 153.90425075 183.08204172 161.38760379 183.07201904 168.87096494 C183.06085805 177.38835733 183.05534749 185.9057504 183.05032361 194.42314827 C183.03985911 211.94877394 183.02225958 229.47438543 183 247 C181.11527121 246.06765245 179.23171293 245.13293856 177.34863281 244.19726562 C176.29959778 243.67700806 175.25056274 243.15675049 174.16973877 242.62072754 C169.24930903 240.10484956 164.50373639 237.31488185 159.75 234.5 C157.64068487 233.26031479 155.53130812 232.02073442 153.421875 230.78125 C152.35646484 230.15347656 151.29105469 229.52570313 150.19335938 228.87890625 C145.13766509 225.90424086 140.06848383 222.95280165 135 220 C132.99731305 218.8321732 130.99470902 217.6642042 128.9921875 216.49609375 C128.00186523 215.91843262 127.01154297 215.34077148 125.99121094 214.74560547 C123.01693706 213.0098841 120.04351578 211.27271075 117.0703125 209.53515625 C105.63780531 202.85616521 94.18464605 196.21452626 82.71142578 189.60571289 C74.47172552 184.85667163 66.25386578 180.07119041 58.04345703 175.27172852 C50.6702595 170.96514664 43.27570261 166.69660626 35.875 162.4375 C27.3718378 157.54040426 18.88930312 152.61027041 10.4375 147.625 C9.49696777 147.07126709 8.55643555 146.51753418 7.58740234 145.94702148 C6.73227051 145.44114502 5.87713867 144.93526855 4.99609375 144.4140625 C4.24513428 143.9701416 3.4941748 143.5262207 2.72045898 143.06884766 C1 142 1 142 0 141 C-0.09643778 139.17772313 -0.12187371 137.3516664 -0.12025452 135.52684021 C-0.12231651 133.74518463 -0.12231651 133.74518463 -0.12442017 131.92753601 C-0.12082489 130.61267715 -0.11722961 129.2978183 -0.11352539 127.94311523 C-0.11324352 126.55382286 -0.11340125 125.16453033 -0.1139679 123.77523804 C-0.11425588 119.99234711 -0.10835901 116.20948762 -0.10139394 112.42660403 C-0.09516055 108.47744323 -0.09455661 104.52828178 -0.09336853 100.57911682 C-0.09025517 93.09574925 -0.08204172 85.61239621 -0.07201904 78.12903506 C-0.06085805 69.61164267 -0.05534749 61.0942496 -0.05032361 52.57685173 C-0.03985911 35.05122606 -0.02225958 17.52561457 0 0 Z " fill="#2BC4DE" transform="translate(65,141)"/>
<path d="M0 0 C4.20818624 1.27429357 7.75039092 2.85759814 11.5078125 5.1328125 C12.56226562 5.76574219 13.61671875 6.39867187 14.703125 7.05078125 C15.5374707 7.55665771 15.5374707 7.55665771 16.38867188 8.07275391 C19.39972337 9.8975053 22.42279035 11.70214608 25.4453125 13.5078125 C26.07044739 13.88174133 26.69558228 14.25567017 27.33966064 14.64093018 C33.84085415 18.52017269 40.41532571 22.26445472 47 26 C56.22477683 31.23842534 65.38696139 36.56838758 74.5 42 C83.6775781 47.46894535 92.90249783 52.84149347 102.1875 58.125 C113.84865042 64.76101208 125.45530558 71.48526252 137.03369141 78.26464844 C141.13708688 80.66521922 145.24475419 83.05843546 149.35229492 85.4519043 C154.23649488 88.29847648 159.11853131 91.14874722 164 94 C165.32837891 94.77561279 165.32837891 94.77561279 166.68359375 95.56689453 C169.10262227 96.98029571 171.52032993 98.3959235 173.9375 99.8125 C174.64769287 100.22725586 175.35788574 100.64201172 176.08959961 101.06933594 C180.88458503 103.88458503 180.88458503 103.88458503 182 105 C182.09268999 106.35094982 182.11747326 107.70667091 182.11352539 109.06079102 C182.11344986 109.92160782 182.11337433 110.78242462 182.11329651 111.66932678 C182.10813522 112.60473801 182.10297394 113.54014923 182.09765625 114.50390625 C182.09553383 115.93342873 182.09553383 115.93342873 182.09336853 117.39183044 C182.08775152 120.44875165 182.07519616 123.50560077 182.0625 126.5625 C182.05748719 128.62955624 182.05292391 130.69661362 182.04882812 132.76367188 C182.03777656 137.84247588 182.02050055 142.9212257 182 148 C173.87255762 143.61197782 165.82735167 139.08991099 157.8125 134.5 C157.2070636 134.15373566 156.6016272 133.80747131 155.97784424 133.45071411 C146.60389458 128.08877329 137.26170868 122.67419485 127.94067383 117.22070312 C120.6432037 112.95231454 113.32601254 108.71919227 106 104.5 C92.6497785 96.80893898 79.34266785 89.04516989 66.04101562 81.27050781 C50.55631983 72.21798477 50.55631983 72.21798477 35.02441406 63.24682617 C32.80977812 61.96305674 30.60699809 60.65860115 28.41699219 59.33325195 C22.58643359 55.84014958 17.26600504 53.10985278 10.6315918 51.52124023 C6.25152954 49.50131426 2.91199504 46.86214512 0 43 C-1.11680834 39.56662911 -1.17918624 36.34563455 -1.16015625 32.75390625 C-1.18346512 31.7981218 -1.20677399 30.84233734 -1.23078918 29.85758972 C-1.39157763 19.88701989 -0.79395721 9.93442973 0 0 Z " fill="#2BC3DE" transform="translate(66,338)"/>
<path d="M0 0 C2.90203679 1.3399032 5.64438896 2.82850414 8.41552734 4.42211914 C9.52951904 5.06068848 10.64351074 5.69925781 11.79125977 6.35717773 C12.99549875 7.05190483 14.19968025 7.74673155 15.40380859 8.44165039 C16.65406891 9.16016724 17.90447806 9.87842516 19.1550293 10.59643555 C22.37969766 12.44902778 25.60201385 14.30567162 28.82373047 16.16339111 C31.7969891 17.87698454 34.77243748 19.58676143 37.74755859 21.29711914 C48.31245952 27.3760596 58.85547706 33.48937171 69.35302734 39.68383789 C83.09376341 47.78776021 96.89407551 55.79023096 110.71630859 63.75415039 C119.18384318 68.63423894 127.64492267 73.52503639 136.09130859 78.44165039 C137.07228516 79.01028809 138.05326172 79.57892578 139.06396484 80.16479492 C143.88451595 82.97007892 148.66064175 85.82492089 153.38037109 88.79711914 C154.73122803 89.63883667 154.73122803 89.63883667 156.109375 90.49755859 C157.79060909 91.5497863 159.46298841 92.61636238 161.12402344 93.70019531 C165.06328992 96.1558036 168.62715244 98.21269313 173.44726562 97.85913086 C178.94775895 96.39256937 183.77951419 93.23772753 188.65380859 90.37915039 C189.872318 89.68111948 191.09164632 88.98451627 192.31176758 88.28930664 C195.79277349 86.29916546 199.25571775 84.27957981 202.71630859 82.25415039 C203.53905273 81.77558594 204.36179687 81.29702148 205.20947266 80.80395508 C208.5474619 78.86149215 211.87427734 76.90141751 215.19287109 74.92602539 C222.2375515 70.74437116 229.35513882 66.68620374 236.45874023 62.60571289 C237.51182373 61.99985352 238.56490723 61.39399414 239.64990234 60.76977539 C240.67196777 60.18518555 241.6940332 59.6005957 242.74707031 58.99829102 C244.70444705 57.84852129 246.63969709 56.66010007 248.54882812 55.43188477 C249.42007324 54.87307617 250.29131836 54.31426758 251.18896484 53.73852539 C252.32410522 52.98394043 252.32410522 52.98394043 253.48217773 52.21411133 C256.33752165 50.98722768 257.78646765 51.34180731 260.71630859 52.25415039 C263.52880859 53.69165039 263.52880859 53.69165039 265.71630859 55.25415039 C265.71630859 55.91415039 265.71630859 56.57415039 265.71630859 57.25415039 C263.92578125 58.52832031 263.92578125 58.52832031 261.38037109 59.98461914 C259.95772949 60.80615479 259.95772949 60.80615479 258.50634766 61.64428711 C257.46188477 62.23741699 256.41742188 62.83054687 255.34130859 63.44165039 C254.26075195 64.06313965 253.18019531 64.68462891 252.06689453 65.32495117 C249.77298274 66.64373567 247.47778235 67.95991582 245.18017578 69.2722168 C241.88713019 71.15641077 238.60108573 73.05210691 235.31787109 74.95336914 C220.60052975 83.47405452 205.85843125 91.9558031 191.05810547 100.33178711 C188.66753612 101.70695829 186.30623838 103.10445337 183.95263672 104.53979492 C183.32605164 104.91523941 182.69946655 105.2906839 182.05389404 105.67750549 C180.29726559 106.73136396 178.549002 107.79912892 176.80126953 108.86767578 C173.33567834 110.42521712 172.22274346 110.5495392 168.71630859 109.25415039 C166.14282227 107.98583984 166.14282227 107.98583984 163.38427734 106.36743164 C162.35093262 105.76600342 161.31758789 105.1645752 160.25292969 104.54492188 C159.14771973 103.89209229 158.04250977 103.2392627 156.90380859 102.56665039 C155.73834136 101.88508233 154.57248216 101.20418414 153.40625 100.52392578 C151.00816902 99.12366884 148.6124686 97.71946867 146.21875 96.31176758 C142.98714642 94.41173774 139.74931239 92.52258702 136.50927734 90.63696289 C129.58699879 86.6080093 122.67218964 82.56631717 115.75732422 78.5246582 C104.42777968 71.90393228 93.08654257 65.30479812 81.71630859 58.75415039 C68.36621681 51.06286201 55.05897817 43.29932129 41.75732422 35.5246582 C38.78565363 33.78808208 35.81352499 32.05229214 32.84130859 30.31665039 C31.87008057 29.74889893 30.89885254 29.18114746 29.89819336 28.59619141 C24.48003944 25.43334128 19.04929904 22.29400864 13.60302734 19.17993164 C12.41077746 18.49695963 11.21855717 17.81393595 10.02636719 17.13085938 C7.74675606 15.82484778 5.46420393 14.52451889 3.1796875 13.22705078 C2.14634277 12.63529053 1.11299805 12.04353027 0.04833984 11.43383789 C-1.31713989 10.6562915 -1.31713989 10.6562915 -2.71020508 9.86303711 C-5.41252494 8.17360652 -7.83477804 6.28999071 -10.28369141 4.25415039 C-9.07053862 3.3570796 -7.83729234 2.48713884 -6.59619141 1.62915039 C-5.56945312 0.89825195 -5.56945312 0.89825195 -4.52197266 0.15258789 C-2.28369141 -0.74584961 -2.28369141 -0.74584961 0 0 Z " fill="#F0AF2A" transform="translate(85.28369140625,315.745849609375)"/>
<path d="M0 0 C2.70007929 1.06582077 5.01069786 2.24871276 7.375 3.9375 C7.375 4.5975 7.375 5.2575 7.375 5.9375 C6.2912207 6.55455811 6.2912207 6.55455811 5.18554688 7.18408203 C-7.44952113 14.38160103 -20.07664824 21.58946244 -32.625 28.9375 C-41.67989957 34.23774128 -50.7670015 39.47923109 -59.875 44.6875 C-60.79394043 45.2136792 -60.79394043 45.2136792 -61.73144531 45.75048828 C-63.47129173 46.74636471 -65.21218747 47.74040723 -66.953125 48.734375 C-67.9524707 49.30510742 -68.95181641 49.87583984 -69.98144531 50.46386719 C-72.17180573 51.68486972 -74.37022142 52.84155718 -76.625 53.9375 C-77.62507326 49.97424672 -77.80504129 46.87955932 -76.625 42.9375 C-72.92874099 39.57455904 -68.651535 37.53722977 -64.21435547 35.28808594 C-59.14597719 32.64446265 -54.24884277 29.69273877 -49.3125 26.8125 C-47.07127477 25.52046478 -44.82906846 24.23013006 -42.5859375 22.94140625 C-37.85978605 20.22383573 -33.13564358 17.50284669 -28.4140625 14.77734375 C-27.82613419 14.43797791 -27.23820587 14.09861206 -26.63246155 13.7489624 C-24.90078617 12.74934557 -23.16914281 11.74967325 -21.4375 10.75 C-18.36317512 8.97535428 -15.28881789 7.20084565 -12.2109375 5.43237305 C-10.6107699 4.50735169 -9.01584821 3.57310638 -7.4296875 2.62426758 C-2.89716313 -0.06898007 -2.89716313 -0.06898007 0 0 Z " fill="#F0B02A" transform="translate(428.625,220.0625)"/>
</svg>
